HIERARCHY
ROOT Hips
{
	OFFSET 53.568001 -11.761115 95.704597
	CHANNELS 6 Xposition Yposition Zposition Xrotation Yrotation Zrotation
	JOINT spine
	{
		OFFSET 0.000000 -0.458069 7.965683
		CHANNELS 3 Xrotation Yrotation Zrotation
		JOINT spine1
		{
			OFFSET 0.000000 -0.000001 10.243103
			CHANNELS 3 Xrotation Yrotation Zrotation
			JOINT spine2
			{
				OFFSET 0.000000 -0.000002 9.814751
				CHANNELS 3 Xrotation Yrotation Zrotation
				JOINT Neck
				{
					OFFSET 0.000000 -1.201384 25.198593
					CHANNELS 3 Xrotation Yrotation Zrotation
					JOINT Head
					{
						OFFSET 0.000000 -0.000002 7.613144
						CHANNELS 3 Xrotation Yrotation Zrotation
						End Site
						{
							OFFSET 0.000000 6.077327 18.428101
						}
					}
				}
				JOINT RightShoulder
				{
					OFFSET -4.132698 0.575449 10.599197
					CHANNELS 3 Xrotation Yrotation Zrotation
					JOINT RightArm
					{
						OFFSET 0.000000 -0.000002 13.901794
						CHANNELS 3 Xrotation Yrotation Zrotation
						JOINT RightArmRoll
						{
							OFFSET 0.000000 -0.000002 7.017883
							CHANNELS 3 Xrotation Yrotation Zrotation
							JOINT RightForeArm
							{
								OFFSET 0.000000 -0.000003 20.440598
								CHANNELS 3 Xrotation Yrotation Zrotation
								JOINT RightForeArmRoll
								{
									OFFSET 0.000000 -0.000001 7.875168
									CHANNELS 3 Xrotation Yrotation Zrotation
									JOINT RightHand
									{
										OFFSET 0.000000 -0.000003 15.803696
										CHANNELS 3 Xrotation Yrotation Zrotation
										End Site
										{
											OFFSET 0.000000 0.000000 0.100006
										}
									}
								}
							}
						}
					}
				}
				JOINT LeftShoulder
				{
					OFFSET 4.132698 0.575449 10.599197
					CHANNELS 3 Xrotation Yrotation Zrotation
					JOINT LeftArm
					{
						OFFSET 0.000000 -0.000002 13.901794
						CHANNELS 3 Xrotation Yrotation Zrotation
						JOINT LeftArmRoll
						{
							OFFSET 0.000000 -0.000002 7.017883
							CHANNELS 3 Xrotation Yrotation Zrotation
							JOINT LeftForeArm
							{
								OFFSET 0.000000 -0.000003 20.440598
								CHANNELS 3 Xrotation Yrotation Zrotation
								JOINT LeftForeArmRoll
								{
									OFFSET 0.000000 -0.000001 7.875153
									CHANNELS 3 Xrotation Yrotation Zrotation
									JOINT LeftHand
									{
										OFFSET 0.000000 -0.000003 15.803696
										CHANNELS 3 Xrotation Yrotation Zrotation
										End Site
										{
											OFFSET 0.000000 0.000000 0.100006
										}
									}
								}
							}
						}
					}
				}
			}
		}
	}
	JOINT RightUpLeg
	{
		OFFSET -7.060478 1.086100 -1.294701
		CHANNELS 3 Xrotation Yrotation Zrotation
		JOINT RightUpLegRoll
		{
			OFFSET 0.000000 -0.000003 18.530800
			CHANNELS 3 Xrotation Yrotation Zrotation
			JOINT RightLeg
			{
				OFFSET 0.000000 0.000004 -22.947601
				CHANNELS 3 Xrotation Yrotation Zrotation
				JOINT RightLegRoll
				{
					OFFSET 0.000000 -0.000004 23.022598
					CHANNELS 3 Xrotation Yrotation Zrotation
					JOINT RightFoot
					{
						OFFSET 0.000000 -0.000004 19.162498
						CHANNELS 3 Xrotation Yrotation Zrotation
						JOINT RightToeBase
						{
							OFFSET 0.000000 -0.000002 16.018799
							CHANNELS 3 Xrotation Yrotation Zrotation
							End Site
							{
								OFFSET 0.006790 0.894204 7.757812
							}
						}
					}
				}
			}
		}
	}
	JOINT LeftUpLeg
	{
		OFFSET 7.060478 1.086100 -1.294701
		CHANNELS 3 Xrotation Yrotation Zrotation
		JOINT LeftUpLegRoll
		{
			OFFSET 0.000000 -0.000003 18.530899
			CHANNELS 3 Xrotation Yrotation Zrotation
			JOINT LeftLeg
			{
				OFFSET 0.000000 -0.000004 22.947495
				CHANNELS 3 Xrotation Yrotation Zrotation
				JOINT LeftLegRoll
				{
					OFFSET 0.000000 -0.000004 23.235504
					CHANNELS 3 Xrotation Yrotation Zrotation
					JOINT LeftFoot
					{
						OFFSET 0.000000 -0.000003 18.949600
						CHANNELS 3 Xrotation Yrotation Zrotation
						JOINT LeftToeBase
						{
							OFFSET 0.000000 -0.000003 16.018799
							CHANNELS 3 Xrotation Yrotation Zrotation
							End Site
							{
								OFFSET -0.030430 0.894206 7.757812
							}
						}
					}
				}
			}
		}
	}
}
MOTION
Frames: 12
Frame Time: 0.041667
53.340504 -11.375719 95.789711 -7.714270 1.188449 1.106808 -1.696145 -0.428382 0.183628 0.611912 -0.859828 0.360968 2.257040 -0.855452 0.371241 36.018743 1.147052 -2.637880 -6.634234 -4.600710 -2.233436 8.155461 -65.948284 8.305952 -64.588694 -144.931860 -95.091663 0.000006 0.000003 -0.000001 97.277924 3.505547 -9.592008 -0.000001 0.000000 -3.000780 -5.000170 -7.999734 0.000034 0.665116 64.831411 -0.013475 -65.619834 146.794835 104.239055 0.000006 0.000000 -0.000002 94.892802 -2.736587 9.980934 0.000008 -0.000006 3.003089 -5.000219 7.999340 -0.000080 9.118139 -177.042779 -1.705251 -179.999991 0.000005 -1.314000 176.227118 -2.055533 -0.551517 0.000002 -0.000001 0.035469 69.044367 6.961822 1.925841 25.456842 -7.355402 -0.000096 5.014242 171.583873 -2.067799 -0.000020 -0.000004 -1.235079 -7.842794 1.867815 0.443784 -0.000003 0.000001 -0.061788 69.697791 -6.635285 -2.758719 25.456952 7.355612 -0.000001 
53.334396 -11.373617 95.788597 -7.706935 1.188628 1.121757 -1.700077 -0.426281 0.181935 0.604042 -0.855623 0.358810 2.249167 -0.851273 0.369034 35.997662 1.106938 -2.613095 -6.517480 -4.522713 -2.213846 8.097013 -65.968603 8.237258 -64.647556 -144.931000 -95.118580 0.000004 0.000001 0.000003 97.213673 3.488312 -9.560962 -0.000001 -0.000000 -3.000779 -5.000171 -7.999735 0.000036 0.610634 64.736246 0.037035 -65.627955 146.881155 104.206079 0.000004 0.000001 -0.000004 94.788826 -2.696769 9.907783 0.000007 -0.000003 3.003088 -5.000219 7.999342 -0.000077 9.113561 -177.047669 -1.708958 -179.999991 0.000005 -1.314000 176.227965 -2.056543 -0.551553 0.000002 -0.000001 0.035472 69.044586 6.961832 1.925829 25.456834 -7.355402 -0.000145 4.999141 171.578696 -2.066850 -0.000020 -0.000005 -1.235130 -7.846660 1.866601 0.443764 -0.000003 0.000001 -0.061744 69.695148 -6.633559 -2.763665 25.456953 7.355613 -0.000001 
53.327602 -11.367612 95.786896 -7.699531 1.189214 1.136918 -1.703857 -0.424082 0.180145 0.596457 -0.851232 0.356525 2.241585 -0.846907 0.366696 35.971338 1.061994 -2.586351 -6.397203 -4.436006 -2.193660 8.030394 -65.993049 8.158740 -64.706733 -144.933732 -95.147397 0.000006 0.000002 0.000000 97.145869 3.469072 -9.527685 -0.000001 0.000004 -3.000782 -5.000171 -7.999740 0.000033 0.552843 64.634866 0.090588 -65.631971 146.968158 104.169182 0.000005 0.000001 -0.000003 94.683156 -2.656727 9.833659 0.000008 -0.000007 3.003090 -5.000217 7.999345 -0.000078 9.108797 -177.053557 -1.712974 -179.999991 0.000005 -1.314000 176.228484 -2.057539 -0.551599 0.000002 -0.000001 0.035476 69.044798 6.961843 1.925917 25.456740 -7.355410 -0.000208 4.983600 171.573519 -2.066173 -0.000020 -0.000004 -1.235179 -7.850998 1.865342 0.443743 -0.000003 0.000001 -0.061703 69.692306 -6.631581 -2.769380 25.456955 7.355612 -0.000003 
53.325905 -11.367712 95.785301 -7.692186 1.190146 1.152148 -1.707474 -0.421827 0.178279 0.589195 -0.846732 0.354118 2.234321 -0.842436 0.364235 35.940800 1.013494 -2.558029 -6.275072 -4.342337 -2.173069 7.957176 -66.020629 8.072338 -64.766401 -144.939169 -95.178024 0.000006 0.000003 0.000001 97.074999 3.448142 -9.494227 -0.000001 0.000000 -3.000781 -5.000170 -7.999740 0.000033 0.492520 64.528779 0.146490 -65.631998 147.055940 104.127518 0.000006 -0.000002 -0.000001 94.576380 -2.616519 9.758576 0.000008 -0.000005 3.003090 -5.000218 7.999343 -0.000079 9.103974 -177.060442 -1.717247 -179.999991 0.000005 -1.314997 176.228743 -2.058535 -0.551656 0.000003 -0.000001 0.035480 69.045016 6.961856 1.925906 25.456737 -7.355400 -0.000273 4.967877 171.568341 -2.065767 -0.000020 -0.000004 -1.235230 -7.855724 1.864063 0.443722 -0.000003 0.000001 -0.061663 69.689527 -6.629435 -2.775460 25.456952 7.355612 -0.000001 
53.323101 -11.361818 95.786400 -7.685080 1.191335 1.167307 -1.710926 -0.419552 0.176358 0.582280 -0.842203 0.351596 2.227407 -0.837935 0.361659 35.907250 0.962719 -2.528490 -6.152791 -4.243474 -2.152224 7.878867 -66.050033 7.979927 -64.826794 -144.946491 -95.210440 0.000004 0.000001 0.000001 97.001534 3.425875 -9.458647 -0.000003 -0.000002 -3.000779 -5.000174 -7.999736 0.000032 0.430429 64.419667 0.204065 -65.630782 147.143243 104.085055 0.000008 -0.000001 0.000000 94.468872 -2.576294 9.684536 0.000008 -0.000006 3.003089 -5.000220 7.999348 -0.000079 9.099210 -177.066316 -1.721408 -179.999991 0.000006 -1.314998 176.228716 -2.059530 -0.551722 0.000003 -0.000001 0.035483 69.045330 6.961836 1.925983 25.456731 -7.355399 -0.000333 4.952235 171.562153 -2.065707 -0.000020 -0.000004 -1.235280 -7.860771 1.862782 0.443704 -0.000004 0.000001 -0.061621 69.686596 -6.627179 -2.781931 25.456950 7.355611 -0.000002 
53.320503 -11.361117 95.785896 -7.678345 1.192722 1.182262 -1.714187 -0.417299 0.174402 0.575744 -0.837721 0.348964 2.220873 -0.833484 0.358974 35.871730 0.910950 -2.498106 -6.032050 -4.141174 -2.131297 7.797069 -66.080270 7.883479 -64.888081 -144.954823 -95.244809 0.000004 0.000004 0.000003 96.925787 3.402507 -9.422967 -0.000001 0.000002 -3.000777 -5.000168 -7.999737 0.000032 0.367305 64.309148 0.262675 -65.629519 147.229235 104.042871 0.000005 -0.000001 -0.000004 94.361181 -2.536226 9.610589 0.000007 -0.000000 3.003090 -5.000219 7.999346 -0.000077 9.094603 -177.073201 -1.725750 -179.999991 0.000005 -1.314997 176.228388 -2.060525 -0.551800 0.000003 -0.000001 0.035487 69.045542 6.961850 1.925971 25.456639 -7.355406 -0.000387 4.936915 171.554995 -2.065985 -0.000020 -0.000003 -1.235320 -7.866039 1.861510 0.443691 -0.000003 0.000001 -0.061575 69.683755 -6.624821 -2.788576 25.456952 7.355612 -0.000002 
53.313805 -11.364618 95.784096 -7.672138 1.194236 1.196864 -1.717237 -0.415109 0.172432 0.569615 -0.833366 0.346229 2.214741 -0.829160 0.356188 35.835448 0.859475 -2.467234 -5.914519 -4.037195 -2.110374 7.713312 -66.110050 7.784892 -64.949300 -144.964276 -95.278892 0.000005 0.000003 0.000004 96.848073 3.378383 -9.386204 -0.000001 -0.000000 -3.000783 -5.000167 -7.999740 0.000033 0.303858 64.198778 0.321708 -65.630168 147.312933 104.003516 0.000006 -0.000000 0.000001 94.253824 -2.496437 9.537732 0.000007 -0.000001 3.003090 -5.000217 7.999344 -0.000078 9.090279 -177.080072 -1.730055 -179.999991 0.000005 -1.314998 176.227787 -2.061532 -0.551888 0.000003 -0.000001 0.035491 69.045645 6.961853 1.926066 25.456636 -7.355406 -0.000426 4.922151 171.548834 -2.066425 -0.000020 -0.000004 -1.235370 -7.871464 1.860269 0.443683 -0.000003 0.000001 -0.061522 69.680996 -6.622436 -2.795313 25.456952 7.355613 -0.000001 
53.312702 -11.363915 95.784607 -7.666620 1.195797 1.210977 -1.720074 -0.413019 0.170469 0.563926 -0.829215 0.343398 2.209058 -0.825043 0.353308 35.799518 0.809588 -2.436233 -5.801906 -3.933321 -2.089574 7.629261 -66.138395 7.686204 -65.010710 -144.974057 -95.312599 0.000008 0.000003 0.000001 96.769021 3.353673 -9.348387 -0.000002 0.000002 -3.000791 -5.000171 -7.999739 0.000034 0.240775 64.090301 0.380573 -65.633535 147.394130 103.967514 0.000004 -0.000000 -0.000002 94.147150 -2.456900 9.465976 0.000006 -0.000008 3.003090 -5.000220 7.999343 -0.000080 9.086383 -177.086970 -1.734289 -179.999991 0.000006 -1.314998 176.226927 -2.062525 -0.551984 0.000003 -0.000001 0.035494 69.045863 6.961864 1.926056 25.456636 -7.355405 -0.000446 4.908232 171.541676 -2.067212 -0.000020 -0.000004 -1.235420 -7.876962 1.859074 0.443685 -0.000003 0.000002 -0.061458 69.678352 -6.620054 -2.802043 25.456952 7.355613 -0.000002 
53.308697 -11.369914 95.784409 -7.661942 1.197336 1.224455 -1.722673 -0.411071 0.168534 0.558704 -0.825349 0.340475 2.203836 -0.821211 0.350339 35.765049 0.762573 -2.405425 -5.695858 -3.831306 -2.068925 7.546487 -66.164097 7.589366 -65.072394 -144.983169 -95.346012 0.000007 0.000005 0.000002 96.688779 3.328702 -9.310569 -0.000003 0.000003 -3.000791 -5.000170 -7.999736 0.000031 0.178706 63.985089 0.438719 -65.642619 147.470915 103.939189 0.000004 0.000003 -0.000004 94.041583 -2.417896 9.395325 0.000006 -0.000007 3.003089 -5.000218 7.999342 -0.000078 9.082992 -177.093841 -1.738413 -179.999991 0.000005 -1.314998 176.225820 -2.063517 -0.551093 0.000003 -0.000001 0.035498 69.045973 6.961870 1.926048 25.456632 -7.355406 -0.000456 4.895370 171.535543 -2.068146 -0.000020 -0.000004 -1.235460 -7.882451 1.857950 0.443698 -0.000003 0.000001 -0.061383 69.676037 -6.617688 -2.808655 25.456957 7.355613 -0.000002 
53.304405 -11.365718 95.784607 -7.658265 1.198794 1.237163 -1.725024 -0.409303 0.166648 0.553978 -0.821844 0.337468 2.199112 -0.817741 0.347290 35.733043 0.719730 -2.375160 -5.598074 -3.732932 -2.048496 7.466643 -66.185988 7.496402 -65.134050 -144.991324 -95.377977 0.000008 0.000002 0.000003 96.607896 3.303764 -9.271773 -0.000001 0.000001 -3.000790 -5.000169 -7.999738 0.000033 0.118289 63.885054 0.495613 -65.657543 147.543479 103.918043 0.000005 0.000001 -0.000003 93.937675 -2.379441 9.327811 0.000009 -0.000002 3.003090 -5.000220 7.999343 -0.000081 9.080261 -177.099729 -1.742217 -179.999991 0.000005 -1.314998 176.224468 -2.064509 -0.551207 0.000002 -0.000001 0.035502 69.045966 6.961871 1.926048 25.456641 -7.355408 -0.000436 4.883840 171.528426 -2.069419 -0.000020 -0.000003 -1.235510 -7.887848 1.856915 0.443723 -0.000003 0.000001 -0.061291 69.673858 -6.615463 -2.814886 25.456953 7.355612 -0.000001 
53.300995 -11.352916 95.778999 -7.655738 1.200089 1.248973 -1.727115 -0.407757 0.164830 0.549783 -0.818778 0.334381 2.194911 -0.814713 0.344168 35.704619 0.682356 -2.345773 -5.510207 -3.639967 -2.028283 7.391398 -66.202886 7.409364 -65.195235 -144.998045 -95.407532 0.000005 0.000003 0.000002 96.526767 3.279083 -9.234028 -0.000001 -0.000001 -3.000793 -5.000169 -7.999737 0.000034 0.060143 63.791583 0.550750 -65.680807 147.610387 103.907374 0.000007 -0.000000 -0.000004 93.835919 -2.341735 9.264435 0.000008 -0.000002 3.003089 -5.000218 7.999337 -0.000077 9.078280 -177.105644 -1.745822 -179.999991 0.000006 -1.314998 176.222842 -2.065514 -0.551332 0.000003 -0.000001 0.035505 69.045877 6.961900 1.926060 25.456634 -7.355406 -0.000385 4.873888 171.522320 -2.070837 -0.000020 -0.000004 -1.235550 -7.893077 1.855991 0.443764 -0.000003 0.000000 -0.061181 69.672048 -6.613393 -2.820620 25.456953 7.355611 -0.000002 
53.297104 -11.354615 95.779106 -7.654510 1.201153 1.259730 -1.728926 -0.406471 0.163103 0.546143 -0.816232 0.331223 2.191279 -0.812205 0.340978 35.680959 0.651752 -2.317582 -5.433953 -3.554186 -2.008284 7.322466 -66.213917 7.330341 -65.256911 -145.002184 -95.435610 0.000005 0.000003 -0.000001 96.445727 3.255075 -9.195353 -0.000001 0.000000 -3.000790 -5.000171 -7.999739 0.000034 0.004855 63.706397 0.603643 -65.713066 147.671381 103.907518 0.000008 -0.000001 -0.000001 93.736724 -2.304975 9.202207 0.000008 -0.000005 3.003089 -5.000218 7.999343 -0.000080 9.077160 -177.111573 -1.749186 -179.999991 0.000006 -1.314998 176.220971 -2.065509 -0.551399 0.000002 -0.000001 0.035509 69.045774 6.961892 1.926067 25.456735 -7.355399 -0.000293 4.865739 171.517224 -2.072405 -0.000020 -0.000004 -1.235600 -7.898066 1.855186 0.443823 -0.000003 0.000001 -0.061050 69.670607 -6.611476 -2.825961 25.456952 7.355613 -0.000001 
